<svg width="105" height="48" viewBox="0 0 105 48" fill="none" xmlns="http://www.w3.org/2000/svg">
<path d="M0.5 37.3333V0H7.22V37.3333H0.5Z" fill="black"/>
<path d="M26.1867 38.08C23.5556 38.08 21.1911 37.5467 19.0933 36.48C16.9956 35.4133 15.3422 33.8667 14.1333 31.84C12.9244 29.8133 12.32 27.3778 12.32 24.5333V23.68C12.32 20.8356 12.9244 18.4 14.1333 16.3733C15.3422 14.3467 16.9956 12.8 19.0933 11.7333C21.1911 10.6667 23.5556 10.1333 26.1867 10.1333C28.8178 10.1333 31.1822 10.6667 33.28 11.7333C35.3778 12.8 37.0311 14.3467 38.24 16.3733C39.4489 18.4 40.0533 20.8356 40.0533 23.68V24.5333C40.0533 27.3778 39.4489 29.8133 38.24 31.84C37.0311 33.8667 35.3778 35.4133 33.28 36.48C31.1822 37.5467 28.8178 38.08 26.1867 38.08ZM26.1867 32.1067C28.2489 32.1067 29.9556 31.4489 31.3067 30.1333C32.6578 28.7822 33.3333 26.8622 33.3333 24.3733V23.84C33.3333 21.3511 32.6578 19.4489 31.3067 18.1333C29.9911 16.7822 28.2844 16.1067 26.1867 16.1067C24.1244 16.1067 22.4178 16.7822 21.0667 18.1333C19.7156 19.4489 19.04 21.3511 19.04 23.84V24.3733C19.04 26.8622 19.7156 28.7822 21.0667 30.1333C22.4178 31.4489 24.1244 32.1067 26.1867 32.1067Z" fill="black"/>
<path d="M43.9096 24.2133V23.36C43.9096 20.5867 44.4607 18.2222 45.5629 16.2667C46.6651 14.2756 48.1229 12.7644 49.9362 11.7333C51.7851 10.6667 53.794 10.1333 55.9629 10.1333C58.3807 10.1333 60.2118 10.56 61.4562 11.4133C62.7007 12.2667 63.6074 13.1556 64.1762 14.08H65.1362V10.88H71.7496V42.0267C71.7496 43.84 71.2162 45.28 70.1496 46.3467C69.0829 47.4489 67.6607 48 65.8829 48H48.1762V42.1333H63.5362C64.5318 42.1333 65.0296 41.6 65.0296 40.5333V33.6533H64.0696C63.714 34.2222 63.2163 34.8089 62.5762 35.4133C61.9362 35.9822 61.0829 36.4622 60.0162 36.8533C58.9496 37.2444 57.5985 37.44 55.9629 37.44C53.794 37.44 51.7851 36.9244 49.9362 35.8933C48.1229 34.8267 46.6651 33.3156 45.5629 31.36C44.4607 29.3689 43.9096 26.9867 43.9096 24.2133ZM57.8829 31.5733C59.9451 31.5733 61.6696 30.9156 63.0562 29.6C64.4429 28.2844 65.1362 26.4356 65.1362 24.0533V23.52C65.1362 21.1022 64.4429 19.2533 63.0562 17.9733C61.7051 16.6578 59.9807 16 57.8829 16C55.8207 16 54.0962 16.6578 52.7096 17.9733C51.3229 19.2533 50.6296 21.1022 50.6296 23.52V24.0533C50.6296 26.4356 51.3229 28.2844 52.7096 29.6C54.0962 30.9156 55.8207 31.5733 57.8829 31.5733Z" fill="black"/>
<path d="M90.72 38.08C88.0889 38.08 85.7244 37.5467 83.6267 36.48C81.5289 35.4133 79.8755 33.8667 78.6667 31.84C77.4578 29.8133 76.8533 27.3778 76.8533 24.5333V23.68C76.8533 20.8356 77.4578 18.4 78.6667 16.3733C79.8755 14.3467 81.5289 12.8 83.6267 11.7333C85.7244 10.6667 88.0889 10.1333 90.72 10.1333C93.3511 10.1333 95.7156 10.6667 97.8133 11.7333C99.9111 12.8 101.564 14.3467 102.773 16.3733C103.982 18.4 104.587 20.8356 104.587 23.68V24.5333C104.587 27.3778 103.982 29.8133 102.773 31.84C101.564 33.8667 99.9111 35.4133 97.8133 36.48C95.7156 37.5467 93.3511 38.08 90.72 38.08ZM90.72 32.1067C92.7822 32.1067 94.4889 31.4489 95.84 30.1333C97.1911 28.7822 97.8667 26.8622 97.8667 24.3733V23.84C97.8667 21.3511 97.1911 19.4489 95.84 18.1333C94.5244 16.7822 92.8178 16.1067 90.72 16.1067C88.6578 16.1067 86.9511 16.7822 85.6 18.1333C84.2489 19.4489 83.5733 21.3511 83.5733 23.84V24.3733C83.5733 26.8622 84.2489 28.7822 85.6 30.1333C86.9511 31.4489 88.6578 32.1067 90.72 32.1067Z" fill="black"/>
</svg>
