<svg width="57" height="24" viewBox="0 0 57 24" fill="none" xmlns="http://www.w3.org/2000/svg">
<g clip-path="url(#clip0_449_106517)">
<path d="M3.25938 23.9998C4.6984 23.9998 5.86496 22.819 5.86496 21.3625C5.86496 19.9059 4.6984 18.7251 3.25938 18.7251C1.82036 18.7251 0.653809 19.9059 0.653809 21.3625C0.653809 22.819 1.82036 23.9998 3.25938 23.9998Z" fill="#06F784"/>
<path d="M17.1557 9.97779C20.4561 9.97779 20.7167 13.4943 20.7167 14.5492V23.6481H24.1908V13.6261C24.1908 11.3404 23.7131 9.6701 22.8446 8.70307C21.8023 7.56021 20.239 6.94482 18.2414 6.94482C16.5478 6.94482 14.9844 7.60417 13.6382 8.87889C13.5948 8.92285 13.4645 8.9668 13.4211 8.92285C13.3342 8.87889 13.2908 8.79098 13.2908 8.70307V7.38438H9.6864V23.6042H13.2908V15.8239C13.3342 12.9668 13.5513 12.3514 14.1593 11.4723C14.8107 10.4613 15.8095 9.97779 17.1557 9.97779Z" fill="white"/>
<path d="M43.4718 23.5165V0H39.9977V9.14286C39.9977 9.18681 39.9543 9.23077 39.9108 9.23077C39.8674 9.23077 39.824 9.23077 39.7806 9.18681L39.52 8.92308C37.9567 7.34066 36.2196 6.54945 34.2654 6.54945C32.0073 6.54945 30.1399 7.38462 28.6634 9.01099C27.1869 10.6374 26.4053 12.7473 26.4053 15.1648C26.4053 17.6703 27.1869 19.7802 28.6634 21.4506C30.1834 23.0769 32.0941 23.9121 34.3523 23.9121C36.263 23.9121 38.0001 23.1648 39.52 21.7143L39.7806 21.4506C39.824 21.4066 39.8674 21.4066 39.9108 21.4066C39.9543 21.4066 39.9977 21.4506 39.9977 21.4945V23.3846H43.4718V23.5165ZM38.7818 19.4286C37.8264 20.4835 36.567 21.011 35.0037 21.011C33.5706 21.011 32.3112 20.4835 31.3559 19.3846C30.4439 18.2857 29.9662 16.9231 29.9662 15.2527C29.9662 13.6703 30.4439 12.3077 31.3993 11.2527C32.3547 10.1978 33.614 9.62637 35.0471 9.62637C36.567 9.62637 37.8264 10.1538 38.7818 11.2088C39.7371 12.3077 40.2148 13.6703 40.2148 15.2967C40.2148 16.967 39.7371 18.3736 38.7818 19.4286Z" fill="white"/>
<path d="M53.1994 23.9999C54.5022 23.9999 55.501 23.9559 56.4129 23.5164V20.3955C55.8918 20.5274 55.2838 20.6153 54.7193 20.6153C53.1125 20.6153 52.2006 19.6922 52.2006 18.0219V10.3735C52.2006 10.3296 52.244 10.2856 52.2874 10.2856H56.4563V7.03285H52.2874C52.244 7.03285 52.2006 6.9889 52.2006 6.94494V2.46143H48.7265V6.94494C48.7265 6.9889 48.6831 7.03285 48.6396 7.03285H46.5552V10.2856H48.6396C48.6831 10.2856 48.7265 10.3296 48.7265 10.3735V18.2856C48.7265 21.934 50.3767 23.9999 53.1994 23.9999Z" fill="white"/>
</g>
<defs>
<clipPath id="clip0_449_106517">
<rect width="55.8462" height="24" fill="white" transform="translate(0.653809)"/>
</clipPath>
</defs>
</svg>
