<svg width="56" height="23" viewBox="0 0 56 23" fill="none" xmlns="http://www.w3.org/2000/svg">
<path d="M2.875 22.5C4.25573 22.5 5.375 21.3807 5.375 20C5.375 18.6193 4.25573 17.5 2.875 17.5C1.49429 17.5 0.375 18.6193 0.375 20C0.375 21.3807 1.49429 22.5 2.875 22.5Z" fill="black" fill-opacity="0.5"/>
<path d="M16.5846 10.2237C19.7703 10.2237 20.0218 13.3816 20.0218 14.329V22.5H23.375V13.5C23.375 11.4474 22.914 9.94737 22.0757 9.07896C21.0697 8.05264 19.5607 7.5 17.6325 7.5C15.9978 7.5 14.4888 8.09212 13.1894 9.23686C13.1475 9.27631 13.0217 9.31579 12.9798 9.27631C12.896 9.23686 12.8541 9.1579 12.8541 9.07896V7.89475H9.375V22.4606H12.8541V15.4737C12.896 12.9079 13.1056 12.3553 13.6924 11.5658C14.3211 10.6579 15.2852 10.2237 16.5846 10.2237Z" fill="black" fill-opacity="0.5"/>
<path d="M42.375 22.1361V0.5H39.3217V8.91176C39.3217 8.9522 39.2835 8.99265 39.2454 8.99265C39.2071 8.99265 39.1689 8.99265 39.1308 8.9522L38.9018 8.70957C37.5277 7.25367 36.001 6.52575 34.2835 6.52575C32.2988 6.52575 30.6575 7.29412 29.3599 8.79044C28.0622 10.2868 27.375 12.2279 27.375 14.4522C27.375 16.7574 28.0622 18.6985 29.3599 20.2353C30.6957 21.7316 32.3751 22.5 34.3597 22.5C36.0391 22.5 37.566 21.8125 38.9018 20.4779L39.1308 20.2353C39.1689 20.1949 39.2071 20.1949 39.2454 20.1949C39.2835 20.1949 39.3217 20.2353 39.3217 20.2758V22.0146H42.375V22.1361ZM38.253 18.375C37.4133 19.3456 36.3064 19.8309 34.9323 19.8309C33.6727 19.8309 32.5659 19.3456 31.7262 18.3346C30.9247 17.3235 30.5048 16.0699 30.5048 14.5331C30.5048 13.0772 30.9247 11.8235 31.7644 10.8529C32.6041 9.88236 33.7109 9.35662 34.9704 9.35662C36.3064 9.35662 37.4133 9.84192 38.253 10.8125C39.0927 11.8235 39.5125 13.0772 39.5125 14.5735C39.5125 16.1103 39.0927 17.4044 38.253 18.375Z" fill="black" fill-opacity="0.5"/>
<path d="M52.4144 22.5C53.5987 22.5 54.5066 22.4591 55.3356 22.0511V19.1531C54.8619 19.2755 54.3092 19.3571 53.7961 19.3571C52.3355 19.3571 51.5065 18.5 51.5065 16.949V9.84693C51.5065 9.80613 51.5459 9.76531 51.5856 9.76531H55.375V6.74491H51.5856C51.5459 6.74491 51.5065 6.70409 51.5065 6.66327V2.5H48.3487V6.66327C48.3487 6.70409 48.3092 6.74491 48.2698 6.74491H46.375V9.76531H48.2698C48.3092 9.76531 48.3487 9.80613 48.3487 9.84693V17.1939C48.3487 20.5816 49.8487 22.5 52.4144 22.5Z" fill="black" fill-opacity="0.5"/>
</svg>
