<svg width="152" height="25" viewBox="0 0 152 25" fill="none" xmlns="http://www.w3.org/2000/svg">
<g clip-path="url(#clip0_663_16437)">
<path d="M15.8932 9.98563C19.5772 9.98563 19.4895 13.0569 19.4895 14.5487V23.631H22.8666V13.6712C22.8666 11.3896 22.3842 9.72235 21.507 8.75708C20.4544 7.61633 18.8755 7.00208 16.858 7.00208C15.1476 7.00208 13.7003 7.66021 12.3407 8.93261C12.2968 8.97649 12.1653 9.02037 12.1214 8.97649C12.0336 8.93261 11.9898 8.84484 11.9898 8.75708V7.35308H8.70044V23.631H11.9898V15.8211C12.0336 12.9692 12.2529 12.3549 12.867 11.4774C13.5248 10.5121 14.5336 9.98563 15.8932 9.98563Z" fill="#303030"/>
<path d="M34.268 6.87122C31.8558 6.87122 29.7507 7.70484 28.084 9.37212C26.4174 11.0394 25.5403 13.0577 25.5403 15.427C25.5403 17.9279 26.3736 20.0339 28.0402 21.7012C29.7068 23.3685 31.7681 24.246 34.2242 24.246C36.7239 24.246 38.8291 23.4123 40.4959 21.7451C42.1626 20.0778 43.0395 18.0156 43.0395 15.5586C43.0395 13.1454 42.2063 11.0394 40.4959 9.37212C38.7854 7.70484 36.6802 6.87122 34.268 6.87122ZM38.04 19.639C37.075 20.6482 35.8031 21.1747 34.2242 21.1747C32.6453 21.1747 31.3734 20.6481 30.4085 19.5952C29.4875 18.586 29.0051 17.182 29.0051 15.4708C29.0051 13.8474 29.4875 12.5312 30.4524 11.522C31.4173 10.469 32.6892 9.9425 34.2242 9.9425C35.8031 9.9425 37.075 10.469 38.04 11.522C39.0046 12.5312 39.4434 13.8913 39.4434 15.5586C39.4871 17.2259 39.0046 18.586 38.04 19.639Z" fill="#303030"/>
<path d="M99.0481 0.246216H95.5394V9.37234C95.5394 9.41622 95.4954 9.4601 95.4517 9.4601C95.4076 9.4601 95.3639 9.4601 95.3202 9.41622L95.0569 9.15297C93.4779 7.57345 91.7238 6.78371 89.75 6.78371C87.4693 6.78371 85.5837 7.61733 84.0925 9.24074C82.6013 10.8641 81.8118 12.9702 81.8118 15.3833C81.8118 17.8842 82.6013 19.9903 84.0925 21.6575C85.6274 23.281 87.5571 24.1146 89.8378 24.1146C91.7675 24.1146 93.522 23.3687 95.0569 21.9208L95.3202 21.6575C95.3639 21.6137 95.4076 21.6137 95.4517 21.6137C95.4954 21.6137 95.5394 21.6575 95.5394 21.7014V23.632H99.0481V0.246216ZM94.3115 19.6831C93.3465 20.7362 92.0745 21.2627 90.4955 21.2627C89.0483 21.2627 87.7763 20.7362 86.8116 19.6393C85.8907 18.5424 85.4082 17.1822 85.4082 15.5149C85.4082 13.9354 85.8907 12.5753 86.8553 11.5223C87.8204 10.4692 89.092 9.89887 90.5395 9.89887C92.0745 9.89887 93.3465 10.4254 94.3115 11.4784C95.2761 12.5753 95.7586 13.9354 95.7586 15.5588C95.7586 17.2261 95.2761 18.5863 94.3115 19.6831Z" fill="#303030"/>
<path d="M119.178 7.30982H115.669V9.37199C115.669 9.41587 115.625 9.45975 115.581 9.45975C115.538 9.45975 115.494 9.45976 115.45 9.41587L115.187 9.15259C113.608 7.57307 111.854 6.78333 109.924 6.78333C107.643 6.78333 105.758 7.61695 104.266 9.24035C102.775 10.8638 101.986 12.9259 101.986 15.383C101.986 17.8839 102.775 19.9899 104.266 21.6572C105.801 23.2806 107.731 24.1142 110.055 24.1142C111.898 24.1142 113.608 23.3683 115.231 21.9204L115.494 21.701C115.538 21.6572 115.581 21.6572 115.625 21.701C115.669 21.701 115.669 21.7449 115.669 21.7888V23.6316H119.178V7.30982ZM114.485 19.6828C113.52 20.7358 112.248 21.2623 110.669 21.2623C109.222 21.2623 107.95 20.7358 106.985 19.6389C106.065 18.5859 105.582 17.1818 105.582 15.5146C105.582 13.9351 106.065 12.5749 107.029 11.5219C107.994 10.4689 109.266 9.89849 110.713 9.89849C112.248 9.89849 113.52 10.425 114.485 11.478C115.45 12.5749 115.932 13.9351 115.932 15.5584C115.932 17.2257 115.45 18.5859 114.485 19.6828Z" fill="#303030"/>
<path d="M78.4337 7.30982H74.925V9.37199C74.925 9.41587 74.8813 9.45975 74.8373 9.45975C74.7936 9.45975 74.7495 9.45976 74.7058 9.41587L74.4425 9.15259C72.8639 7.57307 71.1094 6.78333 69.1797 6.78333C66.899 6.78333 65.013 7.61695 63.5222 9.24035C62.0309 10.8638 61.2415 12.9259 61.2415 15.383C61.2415 17.8839 62.0309 19.9899 63.5222 21.6572C65.0571 23.2806 66.9868 24.1142 69.3112 24.1142C71.1535 24.1142 72.8639 23.3683 74.4866 21.9204L74.7495 21.701C74.7936 21.6572 74.8373 21.6572 74.8813 21.701C74.925 21.701 74.925 21.7449 74.925 21.7888V23.6316H78.4337V7.30982ZM73.7408 19.6828C72.7761 20.7358 71.5041 21.2623 69.9252 21.2623C68.478 21.2623 67.206 20.7358 66.2413 19.6389C65.32 18.5859 64.8379 17.1818 64.8379 15.5146C64.8379 13.9351 65.32 12.5749 66.285 11.5219C67.2501 10.4689 68.5217 9.89849 69.9692 9.89849C71.5041 9.89849 72.7761 10.425 73.7408 11.478C74.7058 12.5749 75.1883 13.9351 75.1883 15.5584C75.1883 17.2257 74.7058 18.5859 73.7408 19.6828Z" fill="#303030"/>
<path d="M151.94 7.30982H148.431V9.37199C148.431 9.41587 148.387 9.45975 148.343 9.45975C148.299 9.45975 148.255 9.45976 148.212 9.41587L147.948 9.15259C146.369 7.57307 144.615 6.78333 142.686 6.78333C140.405 6.78333 138.519 7.61695 137.028 9.24035C135.536 10.8638 134.747 12.9259 134.747 15.383C134.747 17.8839 135.536 19.9899 137.028 21.6572C138.563 23.2806 140.493 24.1142 142.817 24.1142C144.659 24.1142 146.369 23.3683 147.992 21.9204L148.255 21.701C148.299 21.6572 148.343 21.6572 148.387 21.701C148.431 21.701 148.431 21.7449 148.431 21.7888V23.6316H151.94V7.30982ZM147.247 19.6828C146.282 20.7358 145.01 21.2623 143.431 21.2623C141.984 21.2623 140.712 20.7358 139.747 19.6389C138.826 18.542 138.343 17.1818 138.343 15.5146C138.343 13.9351 138.826 12.5749 139.791 11.5219C140.756 10.4689 142.028 9.89849 143.475 9.89849C145.01 9.89849 146.282 10.425 147.247 11.478C148.212 12.5749 148.694 13.9351 148.694 15.5584C148.694 17.2257 148.212 18.5859 147.247 19.6828Z" fill="#303030"/>
<path d="M52.076 16.8317C52.032 16.8317 51.9883 16.7878 51.9883 16.7878L47.4268 7.31067H43.4797L51.7691 23.6324H52.383L60.716 7.31067H56.7686L52.2075 16.744C52.1634 16.8317 52.1197 16.8317 52.076 16.8317Z" fill="#303030"/>
<path d="M128.914 24.2023C130.23 24.2023 131.239 24.1584 132.16 23.7197V20.6045C131.634 20.7362 131.02 20.8239 130.45 20.8239C128.827 20.8239 127.906 19.9025 127.906 18.2352V10.6009C127.906 10.557 127.95 10.5131 127.993 10.5131H132.204V7.3102H127.993C127.95 7.3102 127.906 7.26632 127.906 7.22244V2.70325H124.397V7.22244C124.397 7.26632 124.353 7.3102 124.31 7.3102H122.204V10.5131H124.31C124.353 10.5131 124.397 10.557 124.397 10.6009V18.4985C124.397 22.1402 126.02 24.2023 128.914 24.2023Z" fill="#303030"/>
<path d="M2.6913 24.2027C4.14461 24.2027 5.3228 23.0241 5.3228 21.5702C5.3228 20.1162 4.14461 18.9376 2.6913 18.9376C1.23797 18.9376 0.0598145 20.1162 0.0598145 21.5702C0.0598145 23.0241 1.23797 24.2027 2.6913 24.2027Z" fill="#06F784"/>
</g>
<defs>
<clipPath id="clip0_663_16437">
<rect width="151.881" height="24" fill="white" transform="translate(0.0598145 0.246216)"/>
</clipPath>
</defs>
</svg>
