<svg width="20" height="24" viewBox="0 0 20 24" fill="none" xmlns="http://www.w3.org/2000/svg">
<path d="M10.0367 8.00251C10.0215 8.00251 7.75705 10.0613 5.00456 12.5777L1.15757e-06 17.1528L1.00755e-06 20.5849C9.08498e-07 22.851 0.00851335 24.0111 0.0250386 23.9999C0.0387906 23.9906 2.29592 21.9403 5.04086 19.4437C9.34559 15.5284 10.0372 14.9092 10.072 14.9395L10.0367 8.00251Z" fill="#2366AF"/>
<path d="M10.04 6.03139e-07C10.0249 -0.00168818 7.75975 2.05652 5.0063 4.57378L1.50736e-06 9.15063L1.35724e-06 12.585C1.23732e-06 15.3286 0.00632216 16.014 0.0314858 15.9924C0.0487912 15.9775 2.30083 13.9307 5.03597 11.444C7.77113 8.95737 10.0221 6.9228 10.0382 6.9228L10.04 6.03139e-07Z" fill="#2366AF"/>
<path d="M17.7519 7.03636C16.5154 5.90582 14.2806 3.86087 12.7855 2.49198C11.2905 1.1231 10.055 0.00171707 10.04 6.03139e-07L10.0382 6.9228C10.0542 6.9228 12.2826 8.95244 14.9901 11.4331C17.6976 13.9138 19.9324 15.9606 19.9564 15.9815C19.9977 16.0175 20 15.8367 20 12.5557L20 9.09186L17.7519 7.03636Z" fill="#191A33"/>
<path d="M15.0321 12.5493C12.2997 10.0486 10.0518 8.00251 10.0367 8.00251L10.072 14.9395C10.0942 14.9587 12.3174 16.9927 15.0126 19.4595C17.7078 21.9262 19.9325 23.9615 19.9564 23.9824C19.9977 24.0184 20 23.8358 20 20.5583L20 17.0961L15.0321 12.5493Z" fill="#191A33"/>
</svg>
