<svg width="592" height="256" viewBox="0 0 592 256" fill="none" xmlns="http://www.w3.org/2000/svg">
<g clip-path="url(#clip0_1071_20475)">
<path d="M27.6205 255.59C42.8749 255.59 55.2411 243.036 55.2411 227.549C55.2411 212.062 42.8749 199.508 27.6205 199.508C12.3661 199.508 0 212.062 0 227.549C0 243.036 12.3661 255.59 27.6205 255.59Z" fill="#06F784"/>
<path d="M174.925 106.501C209.911 106.501 212.673 143.889 212.673 155.106V251.847H249.5V145.291C249.5 120.989 244.437 103.23 235.23 92.9483C224.182 80.7973 207.609 74.2544 186.434 74.2544C168.48 74.2544 151.908 81.2646 137.637 94.8177C137.177 95.2851 135.796 95.7524 135.336 95.2851C134.415 94.8177 133.955 93.883 133.955 92.9483V78.9279H95.7461V251.38H133.955V168.659C134.415 138.281 136.717 131.738 143.161 122.391C150.066 111.642 160.654 106.501 174.925 106.501Z" fill="white"/>
<path d="M453.889 250.445V0.413818H417.062V97.6224C417.062 98.0897 416.601 98.5571 416.141 98.5571C415.681 98.5571 415.22 98.5571 414.76 98.0897L411.998 95.2856C395.426 78.4611 377.012 70.0488 356.297 70.0488C332.359 70.0488 312.564 78.9284 296.912 96.2203C281.261 113.512 272.975 135.945 272.975 161.649C272.975 188.288 281.261 210.721 296.912 228.48C313.024 245.772 333.279 254.652 357.217 254.652C377.472 254.652 395.886 246.707 411.998 231.284L414.76 228.48C415.22 228.013 415.681 228.013 416.141 228.013C416.601 228.013 417.062 228.48 417.062 228.947V249.043H453.889V250.445ZM404.172 206.982C394.045 218.198 380.695 223.807 364.122 223.807C348.931 223.807 335.581 218.198 325.454 206.515C315.786 194.831 310.723 180.343 310.723 162.584C310.723 145.759 315.786 131.271 325.914 120.055C336.042 108.839 349.391 102.763 364.583 102.763C380.695 102.763 394.045 108.371 404.172 119.588C414.3 131.271 419.363 145.759 419.363 163.051C419.363 180.81 414.3 195.766 404.172 206.982Z" fill="white"/>
<path d="M557.014 255.59C570.825 255.59 581.412 255.123 591.08 250.449V217.267C585.555 218.669 579.111 219.604 573.126 219.604C556.094 219.604 546.426 209.79 546.426 192.031V110.712C546.426 110.245 546.887 109.777 547.347 109.777H591.54V75.1934H547.347C546.887 75.1934 546.426 74.726 546.426 74.2587V26.5891H509.599V74.2587C509.599 74.726 509.139 75.1934 508.678 75.1934H486.582V109.777H508.678C509.139 109.777 509.599 110.245 509.599 110.712V194.835C509.599 233.625 527.092 255.59 557.014 255.59Z" fill="white"/>
</g>
<defs>
<clipPath id="clip0_1071_20475">
<rect width="592" height="255.172" fill="white" transform="translate(0 0.413818)"/>
</clipPath>
</defs>
</svg>
