<svg width="48" height="48" viewBox="0 0 48 48" fill="none" xmlns="http://www.w3.org/2000/svg">
<rect width="48" height="48" rx="24" fill="#3F45D4" fill-opacity="0.1"/>
<path d="M21.3284 26.1716C22.8905 27.7337 22.8905 30.2663 21.3284 31.8284C19.7663 33.3905 17.2337 33.3905 15.6716 31.8284C14.1095 30.2663 14.1095 27.7337 15.6716 26.1716C17.2337 24.6095 19.7663 24.6095 21.3284 26.1716" stroke="#3F45D4" stroke-width="1.5" stroke-linecap="round" stroke-linejoin="round"/>
<path d="M32.3284 26.1716C33.8905 27.7337 33.8905 30.2663 32.3284 31.8284C30.7663 33.3905 28.2337 33.3905 26.6716 31.8284C25.1095 30.2663 25.1095 27.7337 26.6716 26.1716C28.2337 24.6095 30.7663 24.6095 32.3284 26.1716" stroke="#3F45D4" stroke-width="1.5" stroke-linecap="round" stroke-linejoin="round"/>
<path d="M26.8284 16.1716C28.3905 17.7337 28.3905 20.2663 26.8284 21.8284C25.2663 23.3905 22.7337 23.3905 21.1716 21.8284C19.6095 20.2663 19.6095 17.7337 21.1716 16.1716C22.7337 14.6095 25.2663 14.6095 26.8284 16.1716" stroke="#3F45D4" stroke-width="1.5" stroke-linecap="round" stroke-linejoin="round"/>
</svg>
