<svg width="40" height="40" viewBox="0 0 40 40" fill="none" xmlns="http://www.w3.org/2000/svg">
<rect width="40" height="40" rx="4" fill="white" fill-opacity="0.05"/>
<path fill-rule="evenodd" clip-rule="evenodd" d="M26.965 24.61L25.792 23.437C25.206 22.851 24.256 22.851 23.671 23.437L22.749 24.359C22.543 24.565 22.231 24.634 21.965 24.517C20.629 23.932 19.309 23.045 18.132 21.868C16.96 20.696 16.076 19.382 15.49 18.051C15.368 17.776 15.439 17.453 15.652 17.24L16.478 16.414C17.149 15.743 17.149 14.794 16.563 14.208L15.39 13.035C14.609 12.254 13.343 12.254 12.562 13.035L11.91 13.686C11.169 14.427 10.86 15.496 11.06 16.556C11.554 19.169 13.072 22.03 15.521 24.479C17.97 26.928 20.831 28.446 23.444 28.94C24.504 29.14 25.573 28.831 26.314 28.09L26.965 27.439C27.746 26.658 27.746 25.392 26.965 24.61V24.61Z" stroke="#8186F7" stroke-linecap="round" stroke-linejoin="round"/>
<path d="M21 14.991C22.031 14.977 23.067 15.359 23.854 16.146" stroke="#8186F7" stroke-linecap="round" stroke-linejoin="round"/>
<path d="M26.682 13.318C25.113 11.749 23.056 10.964 21 10.964" stroke="#8186F7" stroke-linecap="round" stroke-linejoin="round"/>
<path d="M25.009 19C25.023 17.969 24.641 16.933 23.854 16.146" stroke="#8186F7" stroke-linecap="round" stroke-linejoin="round"/>
<path d="M26.6821 13.318C28.2511 14.887 29.0361 16.944 29.0361 19" stroke="#8186F7" stroke-linecap="round" stroke-linejoin="round"/>
</svg>
